<svg width="38" height="28" viewBox="0 0 38 28" fill="none" xmlns="http://www.w3.org/2000/svg">
    <rect x="0.5" y="0.5" width="37" height="27" rx="2.5" fill="#F5F5F5" stroke="#CCCCCC"/>
    <g>
        <path d="M24.375 15.25C24.6797 15.25 24.9375 15.3672 25.1719 15.5781C25.3828 15.8125 25.5 16.0703 25.5 16.375V19.375C25.5 19.7031 25.3828 19.9609 25.1719 20.1719C24.9375 20.4062 24.6797 20.5 24.375 20.5H13.125C12.7969 20.5 12.5391 20.4062 12.3281 20.1719C12.0938 19.9609 12 19.7031 12 19.375V16.375C12 16.0703 12.0938 15.8125 12.3281 15.5781C12.5391 15.3672 12.7969 15.25 13.125 15.25H15.2812L14.2031 14.1719C13.9688 13.9375 13.875 13.6797 13.875 13.375C13.875 13.0703 13.9922 12.8125 14.2031 12.5781C14.4141 12.3672 14.6719 12.25 15 12.25H16.5V9.625C16.5 9.32031 16.5938 9.0625 16.8281 8.82812C17.0391 8.61719 17.2969 8.5 17.625 8.5H19.875C20.1797 8.5 20.4375 8.61719 20.6719 8.82812C20.8828 9.0625 21 9.32031 21 9.625V12.25H22.5C22.8281 12.25 23.0859 12.3672 23.2969 12.5781C23.5078 12.8125 23.625 13.0703 23.625 13.375C23.625 13.6797 23.5312 13.9375 23.2969 14.1719L22.2188 15.25H24.375ZM15 13.375L18.75 17.125L22.5 13.375H19.875V9.625H17.625V13.375H15ZM24.375 19.375V16.375H21.0938L19.5469 17.9219C19.3125 18.1562 19.0547 18.25 18.75 18.25C18.4219 18.25 18.1641 18.1562 17.9531 17.9219L16.4062 16.375H13.125V19.375H24.375ZM22.3125 17.875C22.3125 18.0391 22.3594 18.1797 22.4766 18.2734C22.5703 18.3906 22.7109 18.4375 22.875 18.4375C23.0156 18.4375 23.1562 18.3906 23.2734 18.2734C23.3672 18.1797 23.4375 18.0391 23.4375 17.875C23.4375 17.7344 23.3672 17.5938 23.2734 17.4766C23.1562 17.3828 23.0156 17.3125 22.875 17.3125C22.7109 17.3125 22.5703 17.3828 22.4766 17.4766C22.3594 17.5938 22.3125 17.7344 22.3125 17.875Z" fill="black"/>
    </g>
</svg>
